# xmcd
#
# Track frame offsets:
#	150
#	18160
#	35502
#	52150
#	69711
#	83392
#	100371
#	118388
#	139136
#	154517
#	167285
#	190537
#	206764
#	222796
#
# Disc length: 3162 seconds
#
# Revision: 0
# Processed by: cddbd v1.5.2PL0 Copyright (c) Steve Scherf et al.
# Submitted via: audiograbber 1.83.01
#
DISCID=bb0c580e
DTITLE=Guilherme and Santiago - Abcde - Vol. 10
DYEAR=2006
DGENRE=Sertanejo
TTITLE0=Abcde
TTITLE1=Seu Amor É Tudo Que Eu Quero
TTITLE2=Ai, Ai, Ai Amor
TTITLE3=Bobão
TTITLE4=Não Sou Maluco
TTITLE5=Mete O Pé Na Solidão
TTITLE6=Não Demora
TTITLE7=Não Desligue O Rádio
TTITLE8=Casei Com A Tia
TTITLE9=Quem Disse Adeus Foi Você
TTITLE10=Quem Ama Uma Vez Não Deixa De Amar
TTITLE11=Quando A Saudade Judia
TTITLE12=Loucura Demais
TTITLE13=Eu Te Amo Meu Brasil
EXTD=Album V.10  Abcde 2006
EXTT0=
EXTT1=
EXTT2=
EXTT3=
EXTT4=
EXTT5=
EXTT6=
EXTT7=
EXTT8=
EXTT9=
EXTT10=
EXTT11=
EXTT12=
EXTT13=
PLAYORDER=
